<mxfile host="app.diagrams.net" modified="2025-04-07T02:56:43.596Z" agent="Mozilla/5.0 (Windows NT 10.0; Win64; x64) AppleWebKit/537.36 (KHTML, like Gecko) Chrome/135.0.0.0 Safari/537.36 Edg/135.0.0.0" etag="kiiEePSHmpRKHr__0L4W" version="24.4.0" type="device">
  <diagram name="PÃ¡gina-1" id="2-5hGGqoM-uWdQK3cwSc">
    <mxGraphModel dx="746" dy="463" grid="1" gridSize="10" guides="1" tooltips="1" connect="1" arrows="1" fold="1" page="1" pageScale="1" pageWidth="827" pageHeight="1169" math="0" shadow="0">
      <root>
        <mxCell id="0" />
        <mxCell id="1" parent="0" />
        <mxCell id="9aa0Bk3CPbCFHRmtTgbR-7" style="edgeStyle=orthogonalEdgeStyle;rounded=0;orthogonalLoop=1;jettySize=auto;html=1;entryX=0.5;entryY=0;entryDx=0;entryDy=0;" edge="1" parent="1" source="9aa0Bk3CPbCFHRmtTgbR-1" target="9aa0Bk3CPbCFHRmtTgbR-2">
          <mxGeometry relative="1" as="geometry" />
        </mxCell>
        <mxCell id="9aa0Bk3CPbCFHRmtTgbR-1" value="API&lt;br&gt;Controllers" style="rounded=0;whiteSpace=wrap;html=1;" vertex="1" parent="1">
          <mxGeometry x="210" y="100" width="120" height="60" as="geometry" />
        </mxCell>
        <mxCell id="9aa0Bk3CPbCFHRmtTgbR-2" value="CORE&lt;div&gt;Interfaces&lt;br&gt;Servicios&lt;/div&gt;" style="rounded=0;whiteSpace=wrap;html=1;" vertex="1" parent="1">
          <mxGeometry x="210" y="200" width="120" height="60" as="geometry" />
        </mxCell>
        <mxCell id="9aa0Bk3CPbCFHRmtTgbR-8" style="edgeStyle=orthogonalEdgeStyle;rounded=0;orthogonalLoop=1;jettySize=auto;html=1;entryX=0;entryY=0.5;entryDx=0;entryDy=0;" edge="1" parent="1" source="9aa0Bk3CPbCFHRmtTgbR-3" target="9aa0Bk3CPbCFHRmtTgbR-2">
          <mxGeometry relative="1" as="geometry">
            <Array as="points">
              <mxPoint x="270" y="290" />
              <mxPoint x="190" y="290" />
              <mxPoint x="190" y="230" />
            </Array>
          </mxGeometry>
        </mxCell>
        <mxCell id="9aa0Bk3CPbCFHRmtTgbR-3" value="INFRASTRUCTURE&lt;div&gt;Repositories&amp;nbsp;&lt;br&gt;UnitOfWork&amp;nbsp;&amp;nbsp;&lt;/div&gt;" style="rounded=0;whiteSpace=wrap;html=1;" vertex="1" parent="1">
          <mxGeometry x="210" y="300" width="120" height="60" as="geometry" />
        </mxCell>
        <mxCell id="9aa0Bk3CPbCFHRmtTgbR-5" value="DATABASE&lt;div&gt;(EF Core SQL)&lt;/div&gt;" style="shape=cylinder3;whiteSpace=wrap;html=1;boundedLbl=1;backgroundOutline=1;size=15;" vertex="1" parent="1">
          <mxGeometry x="370" y="285" width="76" height="90" as="geometry" />
        </mxCell>
        <mxCell id="9aa0Bk3CPbCFHRmtTgbR-6" style="edgeStyle=orthogonalEdgeStyle;rounded=0;orthogonalLoop=1;jettySize=auto;html=1;entryX=0;entryY=0.5;entryDx=0;entryDy=0;entryPerimeter=0;" edge="1" parent="1" source="9aa0Bk3CPbCFHRmtTgbR-3" target="9aa0Bk3CPbCFHRmtTgbR-5">
          <mxGeometry relative="1" as="geometry" />
        </mxCell>
        <mxCell id="9aa0Bk3CPbCFHRmtTgbR-9" value="usa" style="text;html=1;align=center;verticalAlign=middle;whiteSpace=wrap;rounded=0;" vertex="1" parent="1">
          <mxGeometry x="260" y="160" width="60" height="30" as="geometry" />
        </mxCell>
        <mxCell id="9aa0Bk3CPbCFHRmtTgbR-10" value="Implementa" style="text;html=1;align=center;verticalAlign=middle;whiteSpace=wrap;rounded=0;" vertex="1" parent="1">
          <mxGeometry x="200" y="270" width="60" height="30" as="geometry" />
        </mxCell>
      </root>
    </mxGraphModel>
  </diagram>
</mxfile>
